<mxfile host="Electron" modified="2024-04-23T17:48:28.027Z" agent="Mozilla/5.0 (Windows NT 10.0; Win64; x64) AppleWebKit/537.36 (KHTML, like Gecko) draw.io/24.2.5 Chrome/120.0.6099.109 Electron/28.1.0 Safari/537.36" etag="ld84i_alBBzrWieFnMnx" version="24.2.5" type="device" pages="2">
  <diagram name="High level" id="GMu0QSGbvpEu1jrdlIAI">
    <mxGraphModel dx="483" dy="360" grid="1" gridSize="10" guides="1" tooltips="1" connect="1" arrows="1" fold="1" page="1" pageScale="1" pageWidth="827" pageHeight="1169" math="0" shadow="0">
      <root>
        <mxCell id="0" />
        <mxCell id="1" parent="0" />
        <mxCell id="p9YiVdpTm7VBxxbbTaUA-73" value="" style="rounded=1;whiteSpace=wrap;html=1;strokeColor=#1890f1;dashed=1;" parent="1" vertex="1">
          <mxGeometry x="239" y="340" width="231" height="152.8" as="geometry" />
        </mxCell>
        <mxCell id="p9YiVdpTm7VBxxbbTaUA-72" value="" style="rounded=1;whiteSpace=wrap;html=1;strokeColor=#1890f1;dashed=1;" parent="1" vertex="1">
          <mxGeometry x="273.21" y="358.9" width="160" height="101.1" as="geometry" />
        </mxCell>
        <mxCell id="p9YiVdpTm7VBxxbbTaUA-82" value="Workload" style="text;html=1;align=left;verticalAlign=middle;whiteSpace=wrap;rounded=0;labelBackgroundColor=none;fontColor=#1890f1;fontSize=9;fontFamily=segoe ui;" parent="1" vertex="1">
          <mxGeometry x="299.19" y="423.45" width="40.54" height="20" as="geometry" />
        </mxCell>
        <mxCell id="AsgFPV5SbEIe7Opj8LEn-1" value="" style="shape=image;verticalLabelPosition=bottom;labelBackgroundColor=default;verticalAlign=top;aspect=fixed;imageAspect=0;image=data:image/svg+xml,PHN2ZyB4bWxuczp4bGluaz0iaHR0cDovL3d3dy53My5vcmcvMTk5OS94bGluayIgeG1sbnM9Imh0dHA6Ly93d3cudzMub3JnLzIwMDAvc3ZnIiBkYXRhLXR5cGU9IjEiIGlkPSJGeFN5bWJvbDAtMDQ2IiByb2xlPSJwcmVzZW50YXRpb24iIGNsYXNzPSIiIHZpZXdCb3g9IjAgMCAxOCAxOCI+PGc+PHBhdGggZmlsbD0iIzVlYTBlZiIgZD0iTTE3Ljk0NyAxNS4xMDVjLS4xNjcuNzMzLTEuMDgzIDEuNDU2LTIuNzM4IDIuMDE4YTIyLjYgMjIuNiAwIDAgMS0xMi42OS4wMThDLjk5NCAxNi42LjE3MSAxNS45MTcuMDQyIDE1LjIxM2MtLjAyMi0uMTI0IDAtMi4wNTggMC0yLjA1OGwxNy45MzUtLjE2NnMtLjAwOSAyLjAyNi0uMDMgMi4xMTZaIi8+PGVsbGlwc2UgZmlsbD0iIzUwZTZmZiIgdHJhbnNmb3JtPSJyb3RhdGUoLS41NzUgOS4wMDIgMTMuMDk5KSIgcnk9IjMuMTAzIiByeD0iOC45NzYiIGN5PSIxMy4xMTUiIGN4PSI5LjAwMSIvPjxwYXRoIGQ9Ik02LjMyMi4wNDEgMy44NzUuNDk0djMuMzM3bDIuNDQ3LjUyMiAyLjQ1NS0uOTg0Vi44NzlMNi4zMjIuMDQxeiIgZmlsbD0idXJsKCNkNjJmNzQ4My03YjEwLTRjN2QtOTQ1Zi1hOGVhY2Q4ZDMwNzMpIi8+PHBhdGggZmlsbD0ibm9uZSIgZD0ibTYuNDE2IDQuMyAyLjI0MS0uOWEuMTczLjE3MyAwIDAgMCAuMS0uMTJWMS4wMTZhLjE4MS4xODEgMCAwIDAtLjEwOC0uMTU0TDYuMzgyLjA5MmgtLjFMNC4wNTUuNWEuMTcuMTcgMCAwIDAtLjEyOS4xNTR2My4wMmEuMTY0LjE2NCAwIDAgMCAuMTI5LjE2M2wyLjI1LjQ3YS4yNjEuMjYxIDAgMCAwIC4xMTEtLjAwN1oiLz48cGF0aCBkPSJNMTEuNjE3LjA4NCA5LjE3MS41Mzd2My4zMzdsMi40NDYuNTIyIDIuNDQ3LS45OTNWLjkyMkwxMS42MTcuMDg0eiIgZmlsbD0idXJsKCNkNjJmNzQ4My03YjEwLTRjN2QtOTQ1Zi1hOGVhY2Q4ZDMwNzQpIi8+PHBhdGggZD0ibTMuODE1IDQuNjQ0LTIuNDQ3LjQ1M3YzLjMzN2wyLjQ0Ny41MjIgMi40NTUtLjk4NHYtMi40OWwtMi40NTUtLjgzOHoiIGZpbGw9InVybCgjZDYyZjc0ODMtN2IxMC00YzdkLTk0NWYtYThlYWNkOGQzMDc1KSIvPjxwYXRoIGQ9Im05LjA5NCA0LjYwOS0yLjQ0Ny40NTR2My4zMzZsMi40NDcuNTMxIDIuNDQ2LS45OTNWNS40NDhsLTIuNDQ2LS44Mzl6IiBmaWxsPSJ1cmwoI2Q2MmY3NDgzLTdiMTAtNGM3ZC05NDVmLWE4ZWFjZDhkMzA3NikiLz48cGF0aCBkPSJtMTQuMzcyIDQuNjUyLTIuNDQ3LjQ1NHYzLjMzNmwyLjQ0Ny41MjIgMi40NTYtLjk4NFY1LjQ5MWwtMi40NTYtLjgzOXoiIGZpbGw9InVybCgjZDYyZjc0ODMtN2IxMC00YzdkLTk0NWYtYThlYWNkOGQzMDc3KSIvPjxwYXRoIGQ9Im02LjI2MiA5LjI5OC0yLjQ0Ny40NDV2My4zMzZsMi40NDcuNTMxIDIuNDU1LS45OTN2LTIuNDgxbC0yLjQ1NS0uODM4eiIgZmlsbD0idXJsKCNkNjJmNzQ4My03YjEwLTRjN2QtOTQ1Zi1hOGVhY2Q4ZDMwNzgpIi8+PHBhdGggZmlsbD0ibm9uZSIgZD0ibTYuMzU2IDEzLjU0MSAyLjIzMy0uODU1YS4xNTYuMTU2IDAgMCAwIC4xLS4xNTR2LTIuMjI1YS4xNzEuMTcxIDAgMCAwLS4xMTItLjE4OGwtMi4yNTgtLjc3YS4xNTIuMTUyIDAgMCAwLS4xIDBMNCA5Ljc1MWEuMTYzLjE2MyAwIDAgMC0uMTM3LjE2M3YzLjAyOGEuMTYzLjE2MyAwIDAgMCAuMTI4LjE2M2wyLjI1LjQzNmEuMTg5LjE4OSAwIDAgMCAuMTE1IDBaIi8+PHBhdGggZD0ibTExLjU0OSA5LjMzMi0yLjQ0Ny40NTN2My4zMzdsMi40NDcuNTIyIDIuNDU1LS45ODR2LTIuNDlsLTIuNDU1LS44Mzh6IiBmaWxsPSJ1cmwoI2Q2MmY3NDgzLTdiMTAtNGM3ZC05NDVmLWE4ZWFjZDhkMzA3OSkiLz48cGF0aCBmaWxsPSIjMzQxYTZlIiBkPSJNMy44NzUuNDk0djMuMzM3bDIuNDcyLjUyMlYuMDc1Wm0xLjA0NCAzLjA4LS42OTMtLjEzN1YuODcxTDQuOTE5Ljc2Wk02IDMuNzcxbC0uOC0uMTI4Vi43MDhMNiAuNTcxWk05LjE3MS41Mzd2My4zMzdsMi40NTUuNTIyVi4xMThabTEuMDM1IDMuMDgtLjY5My0uMTM3Vi45MTRMMTAuMjA2LjhabTEuMDc4LjItLjgtLjEyOFYuNzUxbC44LS4xNDVaTTEuMzYgNS4xdjMuMzA4bDIuNDcyLjUyMlY0LjY1MlpNMi40IDguMTg2bC0uNy0uMTQ2VjUuNDc0bC42OTMtLjEyWm0xLjA4Ni4yMjItLjgtLjEyOFY1LjMxMWwuOC0uMTM3Wm0zLjE2MS0zLjM0NXYzLjM0NWwyLjQ2NC41MjJWNC42NTJabTEuMDM1IDMuMDg4LS42OTMtLjE0NVY1LjQzOWwuNjkzLS4xMTlabTEuMDc4LjE4OS0uOC0uMTI5VjUuMjc3bC44LS4xMzdabTMuMTY1LTMuMjM0djMuM2wyLjQ3NS41MjRWNC42NTJabTEuMDQ0IDMuMDg4LS42OTMtLjE0NVY1LjQ4MmwuNjkzLS4xMlptMS4wNzguMTg4LS43OTUtLjEyOFY1LjMybC44LS4xMzdaTTMuODE1IDkuNzQzdjMuMzM2bDIuNDczLjUzMVY5LjI2NFptMS4wNDQgMy4wODgtLjY5My0uMTQ1di0yLjU2N0w0Ljg1OSAxMFptMS4wNzguMi0uOC0uMTI4VjkuOTU3bC44LS4xMzdaTTkuMSA5Ljc4NXYzLjMzN2wyLjQ3My41MjJWOS4zNjZabTEuMDQ0IDMuMDg5LS42OTMtLjE0NnYtMi41NjZsLjY5My0uMTJabTEuMDc4LjE4OC0uOC0uMTI4VjEwbC44LS4xMzdaIi8+PC9nPjxkZWZzPiYjeGE7PGxpbmVhckdyYWRpZW50IGdyYWRpZW50VW5pdHM9InVzZXJTcGFjZU9uVXNlIiB5Mj0iMi4xOTciIHgyPSI4Ljc3NyIgeTE9IjIuMTk3IiB4MT0iMy44NzUiIGlkPSJkNjJmNzQ4My03YjEwLTRjN2QtOTQ1Zi1hOGVhY2Q4ZDMwNzMiPjxzdG9wIHN0b3AtY29sb3I9IiNiNzdhZjQiIG9mZnNldD0iMCIvPjxzdG9wIHN0b3AtY29sb3I9IiM3NzNhZGMiIG9mZnNldD0iMSIvPjwvbGluZWFyR3JhZGllbnQ+JiN4YTs8bGluZWFyR3JhZGllbnQgZ3JhZGllbnRVbml0cz0idXNlclNwYWNlT25Vc2UiIHkyPSIyLjI0IiB4Mj0iMTQuMDY0IiB5MT0iMi4yNCIgeDE9IjkuMTcxIiBpZD0iZDYyZjc0ODMtN2IxMC00YzdkLTk0NWYtYThlYWNkOGQzMDc0Ij48c3RvcCBzdG9wLWNvbG9yPSIjYjc3YWY0IiBvZmZzZXQ9IjAiLz48c3RvcCBzdG9wLWNvbG9yPSIjNzczYWRjIiBvZmZzZXQ9IjEiLz48L2xpbmVhckdyYWRpZW50PiYjeGE7PGxpbmVhckdyYWRpZW50IGdyYWRpZW50VW5pdHM9InVzZXJTcGFjZU9uVXNlIiB5Mj0iNi44IiB4Mj0iNi4yNyIgeTE9IjYuOCIgeDE9IjEuMzY4IiBpZD0iZDYyZjc0ODMtN2IxMC00YzdkLTk0NWYtYThlYWNkOGQzMDc1Ij48c3RvcCBzdG9wLWNvbG9yPSIjYjc3YWY0IiBvZmZzZXQ9IjAiLz48c3RvcCBzdG9wLWNvbG9yPSIjNzczYWRjIiBvZmZzZXQ9IjEiLz48L2xpbmVhckdyYWRpZW50PiYjeGE7PGxpbmVhckdyYWRpZW50IGdyYWRpZW50VW5pdHM9InVzZXJTcGFjZU9uVXNlIiB5Mj0iNi43NyIgeDI9IjExLjU0IiB5MT0iNi43NyIgeDE9IjYuNjQ3IiBpZD0iZDYyZjc0ODMtN2IxMC00YzdkLTk0NWYtYThlYWNkOGQzMDc2Ij48c3RvcCBzdG9wLWNvbG9yPSIjYjc3YWY0IiBvZmZzZXQ9IjAiLz48c3RvcCBzdG9wLWNvbG9yPSIjNzczYWRjIiBvZmZzZXQ9IjEiLz48L2xpbmVhckdyYWRpZW50PiYjeGE7PGxpbmVhckdyYWRpZW50IGdyYWRpZW50VW5pdHM9InVzZXJTcGFjZU9uVXNlIiB5Mj0iNi44MDgiIHgyPSIxNi44MjgiIHkxPSI2LjgwOCIgeDE9IjExLjkyNSIgaWQ9ImQ2MmY3NDgzLTdiMTAtNGM3ZC05NDVmLWE4ZWFjZDhkMzA3NyI+PHN0b3Agc3RvcC1jb2xvcj0iI2I3N2FmNCIgb2Zmc2V0PSIwIi8+PHN0b3Agc3RvcC1jb2xvcj0iIzc3M2FkYyIgb2Zmc2V0PSIxIi8+PC9saW5lYXJHcmFkaWVudD4mI3hhOzxsaW5lYXJHcmFkaWVudCBncmFkaWVudFVuaXRzPSJ1c2VyU3BhY2VPblVzZSIgeTI9IjExLjQ1NCIgeDI9IjguNzE3IiB5MT0iMTEuNDU0IiB4MT0iMy44MTUiIGlkPSJkNjJmNzQ4My03YjEwLTRjN2QtOTQ1Zi1hOGVhY2Q4ZDMwNzgiPjxzdG9wIHN0b3AtY29sb3I9IiNiNzdhZjQiIG9mZnNldD0iMCIvPjxzdG9wIHN0b3AtY29sb3I9IiM3NzNhZGMiIG9mZnNldD0iMSIvPjwvbGluZWFyR3JhZGllbnQ+JiN4YTs8bGluZWFyR3JhZGllbnQgZ3JhZGllbnRVbml0cz0idXNlclNwYWNlT25Vc2UiIHkyPSIxMS40ODgiIHgyPSIxNC4wMDQiIHkxPSIxMS40ODgiIHgxPSI5LjEwMiIgaWQ9ImQ2MmY3NDgzLTdiMTAtNGM3ZC05NDVmLWE4ZWFjZDhkMzA3OSI+PHN0b3Agc3RvcC1jb2xvcj0iI2I3N2FmNCIgb2Zmc2V0PSIwIi8+PHN0b3Agc3RvcC1jb2xvcj0iIzc3M2FkYyIgb2Zmc2V0PSIxIi8+PC9saW5lYXJHcmFkaWVudD4mI3hhOzwvZGVmcz4mI3hhOzwvc3ZnPg==;imageBackground=default;" vertex="1" parent="1">
          <mxGeometry x="223.67000000000002" y="453.9" width="49.54" height="49.54" as="geometry" />
        </mxCell>
        <mxCell id="AsgFPV5SbEIe7Opj8LEn-2" value="" style="shape=image;verticalLabelPosition=bottom;labelBackgroundColor=default;verticalAlign=top;aspect=fixed;imageAspect=0;image=data:image/svg+xml,PHN2ZyB4bWxuczp4bGluaz0iaHR0cDovL3d3dy53My5vcmcvMTk5OS94bGluayIgeG1sbnM9Imh0dHA6Ly93d3cudzMub3JnLzIwMDAvc3ZnIiBkYXRhLXR5cGU9IjEiIGlkPSJGeFN5bWJvbDAtMDUwIiByb2xlPSJwcmVzZW50YXRpb24iIGNsYXNzPSIiIHZpZXdCb3g9IjAgMCAxOCAxOCI+PGc+PHBhdGggZmlsbD0idXJsKCNkNjJmNzQ4My03YjEwLTRjN2QtOTQ1Zi1hOGVhY2Q4ZDMwOWYpIiBkPSJNNi44IDcuNGEuMzM4LjMzOCAwIDAgMSAuMjc3LS4zMzNsMy40MTQtLjYzdi0yLjI5YS40NTguNDU4IDAgMCAwLS4zMS0uNDMzTDUuMjM5IDIuMDI3IDAgMi45OTR2Ny4xNDJsNS4yMzkgMS4xMjQgMS41Ni0uNjI5WiIvPjxwYXRoIGZpbGw9Im5vbmUiIGQ9Im01LjQzNSAxMS4xMzkgNC43MjItMS45YS40NTkuNDU5IDAgMCAwIC4yODctLjQyNVY0LjE5YS40NTcuNDU3IDAgMCAwLS4zMTEtLjQzM0w1LjM2NyAyLjEzOWEuNDM3LjQzNyAwIDAgMC0uMjIxLS4wMTdMLjM3MyAzYS4zNTIuMzUyIDAgMCAwLS4yODguMzQ2djYuNDdhLjM1LjM1IDAgMCAwIC4yNzkuMzQ0bDQuODE0IDFhLjQ0My40NDMgMCAwIDAgLjI1Ny0uMDIxWiIvPjxwYXRoIGZpbGw9IiMzNDFhNmUiIGQ9Ik0wIDIuOTk0djcuMTQybDUuMjkxIDEuMTI0VjIuMDI3Wk0yLjIyMyA5LjYuNzQgOS4zVjMuNzkxbDEuNDgzLS4yNDhabTIuMzEyLjQxNC0xLjctLjI3NVYzLjQ1MmwxLjctLjNaIi8+PHBhdGggZmlsbD0ibm9uZSIgZD0ibTEyLjk0NSAxNS44NTIgNC43MjItMS45YS40NTcuNDU3IDAgMCAwIC4yODctLjQyNVY4LjlhLjQ1Ny40NTcgMCAwIDAtLjMxMS0uNDMzbC00Ljc2Ni0xLjYxNmEuNDQ1LjQ0NSAwIDAgMC0uMjItLjAxNmwtNC43NzQuODczYS4zNTEuMzUxIDAgMCAwLS4yODguMzQ1djYuNDc2YS4zNTEuMzUxIDAgMCAwIC4yOC4zNDRsNC44MTMgMWEuNDQzLjQ0MyAwIDAgMCAuMjU3LS4wMjFaIi8+PHBhdGggZmlsbD0idXJsKCNkNjJmNzQ4My03YjEwLTRjN2QtOTQ1Zi1hOGVhY2Q4ZDMwYTApIiBkPSJtMTIuNzUgNi43NC01LjI0Ljk2N3Y3LjE0Mmw1LjI0IDEuMTI0IDQuOTYzLTJhLjQ1Ny40NTcgMCAwIDAgLjI4Ny0uNDI3VjguODZhLjQ1OC40NTggMCAwIDAtLjMxLS40MzNaIi8+PHBhdGggZmlsbD0iIzM0MWE2ZSIgZD0iTTcuNTEgNy43MDd2Ny4xNDJsNS4yOSAxLjEyNFY2Ljc0Wm0yLjIyMyA2LjYwNS0xLjQ4My0uM1Y4LjVsMS40ODMtLjI0OFptMi4zMTIuNDE0LTEuNy0uMjc1VjguMTY1bDEuNy0uM1oiLz48L2c+PGRlZnM+JiN4YTs8bGluZWFyR3JhZGllbnQgZ3JhZGllbnRVbml0cz0idXNlclNwYWNlT25Vc2UiIHkyPSI2LjY0NCIgeDI9IjEwLjQ5IiB5MT0iNi42NDQiIGlkPSJkNjJmNzQ4My03YjEwLTRjN2QtOTQ1Zi1hOGVhY2Q4ZDMwOWYiPjxzdG9wIHN0b3AtY29sb3I9IiNiNzdhZjQiIG9mZnNldD0iMCIvPjxzdG9wIHN0b3AtY29sb3I9IiM3NzNhZGMiIG9mZnNldD0iMSIvPjwvbGluZWFyR3JhZGllbnQ+JiN4YTs8bGluZWFyR3JhZGllbnQgZ3JhZGllbnRVbml0cz0idXNlclNwYWNlT25Vc2UiIHkyPSIxMS4zNTYiIHgyPSIxOCIgeTE9IjExLjM1NiIgeDE9IjcuNTEiIGlkPSJkNjJmNzQ4My03YjEwLTRjN2QtOTQ1Zi1hOGVhY2Q4ZDMwYTAiPjxzdG9wIHN0b3AtY29sb3I9IiNiNzdhZjQiIG9mZnNldD0iMCIvPjxzdG9wIHN0b3AtY29sb3I9IiM3NzNhZGMiIG9mZnNldD0iMSIvPjwvbGluZWFyR3JhZGllbnQ+JiN4YTs8L2RlZnM+JiN4YTs8L3N2Zz4=;" vertex="1" parent="1">
          <mxGeometry x="299.46" y="383.45" width="40" height="40" as="geometry" />
        </mxCell>
        <mxCell id="AsgFPV5SbEIe7Opj8LEn-3" value="" style="shape=image;verticalLabelPosition=bottom;labelBackgroundColor=default;verticalAlign=top;aspect=fixed;imageAspect=0;image=data:image/svg+xml,PHN2ZyB4bWxuczp4bGluaz0iaHR0cDovL3d3dy53My5vcmcvMTk5OS94bGluayIgeG1sbnM9Imh0dHA6Ly93d3cudzMub3JnLzIwMDAvc3ZnIiBkYXRhLXR5cGU9IjEiIGlkPSJGeFN5bWJvbDAtMDQ1IiByb2xlPSJwcmVzZW50YXRpb24iIGNsYXNzPSIiIHZpZXdCb3g9IjAgMCA3Ni4wMzEgMTAwIj48Zz48dGl0bGUvPjx0aXRsZT5NU0lfMjwvdGl0bGU+PHBhdGggZmlsbD0iI2ZjZDExNiIgY2xhc3M9Im1zcG9ydGFsZngtc3ZnLWMxMSIgZD0iTTI4LjI4NCA4MS44NWE1LjA3IDUuMDcgMCAwIDEgMC03LjE3MmwxMS4xMjgtMTEuMTI3VjUzLjZsMTYuNDMzLTE2LjQzNGExMC44MyAxMC44MyAwIDAgMCAwLTE1LjMxNEwzNy4xNjYgMy4xNzJhMTAuODMxIDEwLjgzMSAwIDAgMC0xNS4zMTYgMEwzLjE3MiAyMS44NTJhMTAuODI4IDEwLjgyOCAwIDAgMCAwIDE1LjMxNEwyMC45MDggNTQuOXYxLjVsLTUuMDQ5IDUuMDUgNS4wMDUgNS4wMDUtNS4wMDUgNSA1LjAwNSA1LjAwNS01LjAwNSA1IDUuMDQ5IDUuMDV2LjA2M2w4LjYgOC42IDYuMDUxLTYuMDUxWm0tNC45MjMtNjguMDE2YTYuMTQ3IDYuMTQ3IDAgMSAxIDYuMTQ3IDYuMTQ3IDYuMTQ4IDYuMTQ4IDAgMCAxLTYuMTQ3LTYuMTQ3WiIvPjxwYXRoIGZpbGw9IiNmZmZmZmYiIGNsYXNzPSJtc3BvcnRhbGZ4LXN2Zy1jMDEiIGQ9Ik0xMi4zNjQgMjUuOTJoMzUuNDgydjUuMUgxMi4zNjR6bTAgOC4yOTdoMzUuNDgydjUuMUgxMi4zNjR6IiBvcGFjaXR5PSIuNSIvPjxwYXRoIGZpbGw9IiM1OWI0ZDkiIGNsYXNzPSJtc3BvcnRhbGZ4LXN2Zy1jMTUiIGQ9Ik01NC4zIDEwMGEzLjk3OCAzLjk3OCAwIDAgMS0yLjgzNS0xLjE3NUwzMy43MzUgODEuMWE0LjAwOCA0LjAwOCAwIDAgMSAwLTUuNjdMNTEuNDYxIDU3LjdhNC4wMDUgNC4wMDUgMCAwIDEgNS42NyAwbDE3LjcyNCAxNy43MjlhNC4wMDYgNC4wMDYgMCAwIDEgMCA1LjY3Mkw1Ny4xMzEgOTguODI1QTMuOTc4IDMuOTc4IDAgMCAxIDU0LjMgMTAwIi8+PHBhdGggZmlsbD0iI2ZmZmZmZiIgY2xhc3M9Im1zcG9ydGFsZngtc3ZnLWMwMSIgZD0iTTY2LjEzMiA3NC44NjdhMy4zOTMgMy4zOTMgMCAwIDAtMi44MzkgNS4yNjJsLTYuNzMzIDYuNzMyYTMuOTkxIDMuOTkxIDAgMCAwLS41Ny0uMzI0VjY5LjM2YTMuNCAzLjQgMCAxIDAtMy4zODggMHYxNy4xNzZhMy45MjkgMy45MjkgMCAwIDAtLjU1LjMwN2wtNi43NC02Ljc0YTMuNDkzIDMuNDkzIDAgMSAwLTEuNzQ0IDEuMzYxbDcuMDg1IDcuMDg2YTMuOTU3IDMuOTU3IDAgMSAwIDcuMjkyLjAyOGw3LjEwNi03LjEwNWEzLjM1NiAzLjM1NiAwIDAgMCAxLjA3OS4xOTEgMy40IDMuNCAwIDAgMCAwLTYuOFoiLz48cGF0aCBmaWxsPSIjZmZmZmZmIiBjbGFzcz0ibXNwb3J0YWxmeC1zdmctYzAxIiBkPSJtNTMuNDg0IDY3LjA5MiAxLjU1LTEuNTUyIDEyLjcxNCAxMi43MS0xLjU1MiAxLjU1MXoiIG9wYWNpdHk9Ii41Ii8+PHBhdGggZmlsbD0iI2ZmZmZmZiIgY2xhc3M9Im1zcG9ydGFsZngtc3ZnLWMwMSIgZD0iTTQwLjg1OSA3OC4yNjIgNTMuNTcgNjUuNTVsMS41NTIgMS41NTFMNDIuNDEgNzkuODEzeiIgb3BhY2l0eT0iLjUiLz48cGF0aCBmaWxsPSIjYjhkNDMyIiBjbGFzcz0ibXNwb3J0YWxmeC1zdmctYzEzIiBkPSJNNTYuNjEyIDkwLjFhMi4zNTYgMi4zNTYgMCAxIDEtMi4zNTYtMi4zNTUgMi4zNTUgMi4zNTUgMCAwIDEgMi4zNTYgMi4zNTVtLS40MjctMjMuNjdhMS44OSAxLjg5IDAgMSAxLTEuODktMS44OSAxLjg4OSAxLjg4OSAwIDAgMSAxLjg5IDEuODlNNDQuMzUyIDc4LjI2NWExLjg5IDEuODkgMCAxIDEtMS44OS0xLjg5IDEuODkxIDEuODkxIDAgMCAxIDEuODkgMS44OW0yMy42NyAwYTEuODkxIDEuODkxIDAgMSAxLTEuODkxLTEuODkgMS44OTEgMS44OTEgMCAwIDEgMS44OTEgMS44OSIvPjxwYXRoIGZpbGw9IiNmZmZmZmYiIGNsYXNzPSJtc3BvcnRhbGZ4LXN2Zy1jMDEiIG9wYWNpdHk9Ii4xIiBkPSJNNTcuMTMxIDU3LjdhNCA0IDAgMCAwLTUuNjY5IDBMMzMuNzM1IDc1LjQyOWE0LjAwOCA0LjAwOCAwIDAgMCAwIDUuNjdsMTAuMDM2IDEwLjAzNkw2Mi42NSA2My4yMjJaIi8+PHBhdGggZmlsbD0iI2ZmOGMwMCIgY2xhc3M9Im1zcG9ydGFsZngtc3ZnLWMxMCIgZD0iTTM0Ljc4OCA2OC4xMzd2LTEyLjkybC0zLjg2NCAxLjkwM3YxNC44ODFsMy44NjQtMy44NjR6IiBvcGFjaXR5PSIuNCIvPjwvZz48ZGVmcz4mI3hhOzwvZGVmcz4mI3hhOzwvc3ZnPg==;" vertex="1" parent="1">
          <mxGeometry x="490" y="382.9" width="30.82" height="40.55" as="geometry" />
        </mxCell>
        <mxCell id="AsgFPV5SbEIe7Opj8LEn-4" value="Arc-enabled Kubernetes" style="text;html=1;align=center;verticalAlign=middle;whiteSpace=wrap;rounded=0;labelBackgroundColor=none;fontColor=#1890f1;fontSize=12;fontFamily=segoe ui;" vertex="1" parent="1">
          <mxGeometry x="280" y="492.8" width="153.21" height="20" as="geometry" />
        </mxCell>
        <mxCell id="AsgFPV5SbEIe7Opj8LEn-6" style="rounded=0;orthogonalLoop=1;jettySize=auto;html=1;exitX=0;exitY=0.5;exitDx=0;exitDy=0;dashed=1;dashPattern=12 12;entryX=0.542;entryY=0.438;entryDx=0;entryDy=0;entryPerimeter=0;" edge="1" parent="1" source="AsgFPV5SbEIe7Opj8LEn-3" target="p9YiVdpTm7VBxxbbTaUA-72">
          <mxGeometry relative="1" as="geometry">
            <mxPoint x="380" y="400" as="targetPoint" />
          </mxGeometry>
        </mxCell>
      </root>
    </mxGraphModel>
  </diagram>
  <diagram id="hLfnZEfCcq6127PfEtSk" name="Software">
    <mxGraphModel dx="1014" dy="757" grid="1" gridSize="10" guides="1" tooltips="1" connect="1" arrows="1" fold="1" page="1" pageScale="1" pageWidth="827" pageHeight="1169" math="0" shadow="0">
      <root>
        <mxCell id="0" />
        <mxCell id="1" parent="0" />
        <mxCell id="4eI5F0YqeXbbPe8JP_zU-2" value="" style="rounded=1;whiteSpace=wrap;html=1;strokeColor=#1890f1;dashed=1;" parent="1" vertex="1">
          <mxGeometry x="273.21" y="358.9" width="106.79" height="141.1" as="geometry" />
        </mxCell>
        <mxCell id="4eI5F0YqeXbbPe8JP_zU-5" value="" style="shape=image;verticalLabelPosition=bottom;labelBackgroundColor=default;verticalAlign=top;aspect=fixed;imageAspect=0;image=data:image/svg+xml,PHN2ZyB4bWxuczp4bGluaz0iaHR0cDovL3d3dy53My5vcmcvMTk5OS94bGluayIgeG1sbnM9Imh0dHA6Ly93d3cudzMub3JnLzIwMDAvc3ZnIiBkYXRhLXR5cGU9IjEiIGlkPSJGeFN5bWJvbDAtMDk4IiByb2xlPSJwcmVzZW50YXRpb24iIGNsYXNzPSIiIHZpZXdCb3g9IjAgMCAxOCAxOCI+PGc+PHBhdGggZmlsbD0iI2E2N2FmNCIgZD0ibTEuMTAxIDUuMDY4IDEuMjEtLjIzdjYuNTVsLTEuMjMtLjI3LS45OS0uMjJhLjExLjExIDAgMCAxLS4wOS0uMTJ2LTUuNGEuMTIuMTIgMCAwIDEgLjA5LS4xMmwxLjAxLS4xOVoiLz48cGF0aCBmaWxsPSJ1cmwoIzUxNTJjY2NmLWE0NjktNGEzMi1iMjIzLTM1MTNhZWNkMzI1NikiIGQ9Im05Ljg3IDEyLjk3Ny0uMTE2LS4yODMtLjc0NC0uMjQ0LS4wMDctLjAwMi0uMDA3LS4wMDMtLjExNy0uMDQ0LS4yMjMtLjA4NHYtMS4zMTVsLjIyOC0uMDgyLjc2LS4yNzJ2LS43OTVsLS4xMTYtLjIyOC0uMDU5LS4xMTctLjExMS0uMjIxLjE3NS0uMTc1LjExLS4xMVY1LjM3N2EuNTY1LjU2NSAwIDAgMSAuNDQtLjU0bDMuMDUtLjU3LTQuNDYtMS41NmEuMDg3LjA4NyAwIDAgMC0uMDUtLjAxLjE1NC4xNTQgMCAwIDAtLjE1LjE1djEwLjUxMmEuMTU0LjE1NCAwIDAgMCAuMTUuMTVjLjAyIDAgLjAzLS4wMS4wNS0uMDFsMS4xODItLjQ5LjAxNi0uMDMzWiIvPjxwYXRoIGZpbGw9InVybCgjNTE1MmNjY2YtYTQ2OS00YTMyLWIyMjMtMzUxM2FlY2QzMjU3KSIgZD0iTTguNjU1IDEyLjMxOXYtMS4zMTVsLjEzNi0uMDQ5VjIuODc4YS4xNzUuMTc1IDAgMCAwLS4xNzItLjE3OGgtLjAzM0wyLjg3OCAzLjc3OGEuMTc4LjE3OCAwIDAgMC0uMTQuMTc1djguMTI3YzAgLjA4My4wNTYuMTU1LjEzNy4xNzRMOC41ODEgMTMuNWEuMTc2LjE3NiAwIDAgMCAuMjEtLjE3NHYtLjk1NmwtLjEzNi0uMDUxWiIvPjxwYXRoIGQ9Ik01Ljk0OCA0LjMyMXY3LjU2MmwxLjk4Ni4zMzF2LTguMjVsLTEuOTg2LjM1N3ptLTIuNDM5LjQwOHY2LjYyNWwxLjcyOS4zNjNWNC40MzFsLTEuNzI5LjI5OHoiIG9wYWNpdHk9Ii41IiBmaWxsPSIjYjc5NmY5Ii8+PHBhdGggZmlsbD0iIzc3M2FkYyIgZD0ibTE3Ljg1IDUuODgyLS44LS4yODItMy4wMTktMS4wNDZoLS4wMjNhLjA1Ny4wNTcgMCAwIDAtLjAzNC0uMDA4LjAzLjAzIDAgMCAwLS4wMTkgMGgtLjAxOWEuMS4xIDAgMCAwLS4wNTQuMDg4djQuMTc0bC4wOTUuMDM5LjY5NC0uMzUzLjExNy0uMDU5LjIyMS0uMTExLjE3NS4xNzUuNTg2LjU4Ni4xNzEuMTcxLS4xMDMuMjE4LS4zOS44My4xMTYuMjgzLjY2OS4yMTkuODY2LS4zNTguNzY2LS4zMTZhLjIyMS4yMjEgMCAwIDAgLjEzMy0uMlY2LjA4OGEuMjEzLjIxMyAwIDAgMC0uMTUtLjIwN1oiLz48cGF0aCBmaWxsPSIjYTY3YWY0IiBkPSJtMTAuMTE3IDguNTI4LjE3Mi0uMTcyLjIxOS4xMDUuODE2LjM5LjI4Mi0uMTE2LjI0NC0uNzQ0LjAwMi0uMDA3LjAwMy0uMDA3LjA0NC0uMTE3LjA4NC0uMjIzaDEuMzEzbC4wODIuMjI2LjMxNi44NjguMjg0LjExNy4xMTctLjA2VjQuNjU2YS4xMTguMTE4IDAgMCAwLS4xMTUtLjExOGMtLjAwNyAwLS4wMTMgMC0uMDIuMDAybC0zLjguNzE1YS4xMTguMTE4IDAgMCAwLS4wOTMuMTE3djMuMjA3bC4wNTEtLjA1MVoiLz48cGF0aCBmaWxsPSJ1cmwoIzUxNTJjY2NmLWE0NjktNGEzMi1iMjIzLTM1MTNhZWNkMzI1OCkiIGQ9Ik0xNi4zMiAxMi4wMzd2LS44MzVsLS4xMTctLjA0NC0uODk1LS4yOTMtLjIzNC0uNTY5LjQ1NC0uOTY2LS41ODYtLjU4Ni0uMTE3LjA1OS0uODMzLjQyMy0uNTY5LS4yMzQtLjM2OC0xLjAxaC0uODM1bC0uMDQ0LjExNy0uMjkzLjg5NS0uNTY5LjIzNC0uOTUzLS40NTYtLjU4Ni41ODYuMDU5LjExNy40MjYuODM1LS4yMzQuNTY5LTEuMDI3LjM2OHYuODM1bC4xMTcuMDQ0Ljg5NS4yOTMuMjM0LjU2OS0uNDU2Ljk2OC41ODYuNTg2LjExNy0uMDU5LjgzNS0uNDI1LjU2OS4yMzQuMzY4IDEuMDFoLjgzNWwuMDQ0LS4xMTcuMjkzLS44OTUuNTY5LS4yMzQuOTY2LjQ1NC41ODYtLjU4Ni0uMDU5LS4xMTctLjQyMy0uODMzLjIzNC0uNTY5IDEuMDEtLjM2OFptLTMuNjYxIDEuMjExYTEuNjA3IDEuNjA3IDAgMSAxIDEuNjA3LTEuNjA3YzAgLjg4Ny0uNzE4IDEuNjA2LTEuNjA0IDEuNjA3aC0uMDAyWiIvPjwvZz48ZGVmcz4mI3hhOzxsaW5lYXJHcmFkaWVudCBncmFkaWVudFVuaXRzPSJ1c2VyU3BhY2VPblVzZSIgeTI9IjguMTA0IiB4Mj0iMTQuNjgzIiB5MT0iOC4xMDQiIHgxPSI4Ljc5OCIgaWQ9IjUxNTJjY2NmLWE0NjktNGEzMi1iMjIzLTM1MTNhZWNkMzI1NiI+PHN0b3Agc3RvcC1jb2xvcj0iIzc3M2FkYyIgb2Zmc2V0PSIuMDAxIi8+PHN0b3Agc3RvcC1jb2xvcj0iIzU1MmY5OSIgb2Zmc2V0PSIxIi8+PC9saW5lYXJHcmFkaWVudD4mI3hhOzxsaW5lYXJHcmFkaWVudCBncmFkaWVudFVuaXRzPSJ1c2VyU3BhY2VPblVzZSIgeTI9IjMuMDI0IiB4Mj0iNS43NjUiIHkxPSIxMy4wMjYiIHgxPSI1Ljc2NSIgaWQ9IjUxNTJjY2NmLWE0NjktNGEzMi1iMjIzLTM1MTNhZWNkMzI1NyI+PHN0b3Agc3RvcC1jb2xvcj0iIzc3M2FkYyIgb2Zmc2V0PSIwIi8+PHN0b3Agc3RvcC1jb2xvcj0iI2E2N2FmNCIgb2Zmc2V0PSIxIi8+PC9saW5lYXJHcmFkaWVudD4mI3hhOzxsaW5lYXJHcmFkaWVudCBncmFkaWVudFVuaXRzPSJ1c2VyU3BhY2VPblVzZSIgZ3JhZGllbnRUcmFuc2Zvcm09Im1hdHJpeCgxIDAgMCAtMSAwIDc5MS41MTYpIiB5Mj0iNzgzLjUzNSIgeDI9IjEyLjY1OSIgeTE9Ijc3Ni4yMTQiIHgxPSIxMi42NTkiIGlkPSI1MTUyY2NjZi1hNDY5LTRhMzItYjIyMy0zNTEzYWVjZDMyNTgiPjxzdG9wIHN0b3AtY29sb3I9IiMzMmJlZGQiIG9mZnNldD0iMCIvPjxzdG9wIHN0b3AtY29sb3I9IiMzMmNlZWYiIG9mZnNldD0iLjU3NiIvPjxzdG9wIHN0b3AtY29sb3I9IiMzMmQ0ZjUiIG9mZnNldD0iMSIvPjwvbGluZWFyR3JhZGllbnQ+JiN4YTs8L2RlZnM+JiN4YTs8L3N2Zz4=;" parent="1" vertex="1">
          <mxGeometry x="301" y="367.25" width="45" height="45" as="geometry" />
        </mxCell>
        <mxCell id="4eI5F0YqeXbbPe8JP_zU-8" value="" style="image;aspect=fixed;html=1;points=[];align=center;fontSize=12;image=img/lib/azure2/storage/Storage_Accounts.svg;" parent="1" vertex="1">
          <mxGeometry x="409.07" y="371.9" width="50" height="40" as="geometry" />
        </mxCell>
        <mxCell id="4eI5F0YqeXbbPe8JP_zU-9" value="" style="image;aspect=fixed;html=1;points=[];align=center;fontSize=12;image=img/lib/azure2/general/Powershell.svg;" parent="1" vertex="1">
          <mxGeometry x="390" y="421.9" width="25" height="20" as="geometry" />
        </mxCell>
        <mxCell id="4eI5F0YqeXbbPe8JP_zU-12" value="PowerShell scripts" style="text;html=1;align=center;verticalAlign=middle;whiteSpace=wrap;rounded=0;labelBackgroundColor=none;fontColor=#1890f1;fontSize=9;fontFamily=segoe ui;" parent="1" vertex="1">
          <mxGeometry x="409.07" y="421.90000000000003" width="90.93" height="20" as="geometry" />
        </mxCell>
        <mxCell id="4eI5F0YqeXbbPe8JP_zU-14" value="Container App Job" style="text;html=1;align=center;verticalAlign=middle;whiteSpace=wrap;rounded=0;labelBackgroundColor=none;fontColor=#1890f1;fontSize=9;fontFamily=segoe ui;" parent="1" vertex="1">
          <mxGeometry x="280" y="401.9" width="87" height="20" as="geometry" />
        </mxCell>
        <mxCell id="4eI5F0YqeXbbPe8JP_zU-16" value="" style="shape=image;verticalLabelPosition=bottom;labelBackgroundColor=default;verticalAlign=top;aspect=fixed;imageAspect=0;image=data:image/svg+xml,PHN2ZyB4bWxuczp4bGluaz0iaHR0cDovL3d3dy53My5vcmcvMTk5OS94bGluayIgeG1sbnM9Imh0dHA6Ly93d3cudzMub3JnLzIwMDAvc3ZnIiBkYXRhLXR5cGU9IjEiIGlkPSJGeFN5bWJvbDAtMDU0IiByb2xlPSJwcmVzZW50YXRpb24iIGNsYXNzPSIiIHZpZXdCb3g9IjAgMCA3Ni4wMzEgMTAwIj48Zz48dGl0bGUvPjx0aXRsZT5NU0lfMjwvdGl0bGU+PHBhdGggZmlsbD0iI2ZjZDExNiIgY2xhc3M9Im1zcG9ydGFsZngtc3ZnLWMxMSIgZD0iTTI4LjI4NCA4MS44NWE1LjA3IDUuMDcgMCAwIDEgMC03LjE3MmwxMS4xMjgtMTEuMTI3VjUzLjZsMTYuNDMzLTE2LjQzNGExMC44MyAxMC44MyAwIDAgMCAwLTE1LjMxNEwzNy4xNjYgMy4xNzJhMTAuODMxIDEwLjgzMSAwIDAgMC0xNS4zMTYgMEwzLjE3MiAyMS44NTJhMTAuODI4IDEwLjgyOCAwIDAgMCAwIDE1LjMxNEwyMC45MDggNTQuOXYxLjVsLTUuMDQ5IDUuMDUgNS4wMDUgNS4wMDUtNS4wMDUgNSA1LjAwNSA1LjAwNS01LjAwNSA1IDUuMDQ5IDUuMDV2LjA2M2w4LjYgOC42IDYuMDUxLTYuMDUxWm0tNC45MjMtNjguMDE2YTYuMTQ3IDYuMTQ3IDAgMSAxIDYuMTQ3IDYuMTQ3IDYuMTQ4IDYuMTQ4IDAgMCAxLTYuMTQ3LTYuMTQ3WiIvPjxwYXRoIGZpbGw9IiNmZmZmZmYiIGNsYXNzPSJtc3BvcnRhbGZ4LXN2Zy1jMDEiIGQ9Ik0xMi4zNjQgMjUuOTJoMzUuNDgydjUuMUgxMi4zNjR6bTAgOC4yOTdoMzUuNDgydjUuMUgxMi4zNjR6IiBvcGFjaXR5PSIuNSIvPjxwYXRoIGZpbGw9IiM1OWI0ZDkiIGNsYXNzPSJtc3BvcnRhbGZ4LXN2Zy1jMTUiIGQ9Ik01NC4zIDEwMGEzLjk3OCAzLjk3OCAwIDAgMS0yLjgzNS0xLjE3NUwzMy43MzUgODEuMWE0LjAwOCA0LjAwOCAwIDAgMSAwLTUuNjdMNTEuNDYxIDU3LjdhNC4wMDUgNC4wMDUgMCAwIDEgNS42NyAwbDE3LjcyNCAxNy43MjlhNC4wMDYgNC4wMDYgMCAwIDEgMCA1LjY3Mkw1Ny4xMzEgOTguODI1QTMuOTc4IDMuOTc4IDAgMCAxIDU0LjMgMTAwIi8+PHBhdGggZmlsbD0iI2ZmZmZmZiIgY2xhc3M9Im1zcG9ydGFsZngtc3ZnLWMwMSIgZD0iTTY2LjEzMiA3NC44NjdhMy4zOTMgMy4zOTMgMCAwIDAtMi44MzkgNS4yNjJsLTYuNzMzIDYuNzMyYTMuOTkxIDMuOTkxIDAgMCAwLS41Ny0uMzI0VjY5LjM2YTMuNCAzLjQgMCAxIDAtMy4zODggMHYxNy4xNzZhMy45MjkgMy45MjkgMCAwIDAtLjU1LjMwN2wtNi43NC02Ljc0YTMuNDkzIDMuNDkzIDAgMSAwLTEuNzQ0IDEuMzYxbDcuMDg1IDcuMDg2YTMuOTU3IDMuOTU3IDAgMSAwIDcuMjkyLjAyOGw3LjEwNi03LjEwNWEzLjM1NiAzLjM1NiAwIDAgMCAxLjA3OS4xOTEgMy40IDMuNCAwIDAgMCAwLTYuOFoiLz48cGF0aCBmaWxsPSIjZmZmZmZmIiBjbGFzcz0ibXNwb3J0YWxmeC1zdmctYzAxIiBkPSJtNTMuNDg0IDY3LjA5MiAxLjU1LTEuNTUyIDEyLjcxNCAxMi43MS0xLjU1MiAxLjU1MXoiIG9wYWNpdHk9Ii41Ii8+PHBhdGggZmlsbD0iI2ZmZmZmZiIgY2xhc3M9Im1zcG9ydGFsZngtc3ZnLWMwMSIgZD0iTTQwLjg1OSA3OC4yNjIgNTMuNTcgNjUuNTVsMS41NTIgMS41NTFMNDIuNDEgNzkuODEzeiIgb3BhY2l0eT0iLjUiLz48cGF0aCBmaWxsPSIjYjhkNDMyIiBjbGFzcz0ibXNwb3J0YWxmeC1zdmctYzEzIiBkPSJNNTYuNjEyIDkwLjFhMi4zNTYgMi4zNTYgMCAxIDEtMi4zNTYtMi4zNTUgMi4zNTUgMi4zNTUgMCAwIDEgMi4zNTYgMi4zNTVtLS40MjctMjMuNjdhMS44OSAxLjg5IDAgMSAxLTEuODktMS44OSAxLjg4OSAxLjg4OSAwIDAgMSAxLjg5IDEuODlNNDQuMzUyIDc4LjI2NWExLjg5IDEuODkgMCAxIDEtMS44OS0xLjg5IDEuODkxIDEuODkxIDAgMCAxIDEuODkgMS44OW0yMy42NyAwYTEuODkxIDEuODkxIDAgMSAxLTEuODkxLTEuODkgMS44OTEgMS44OTEgMCAwIDEgMS44OTEgMS44OSIvPjxwYXRoIGZpbGw9IiNmZmZmZmYiIGNsYXNzPSJtc3BvcnRhbGZ4LXN2Zy1jMDEiIG9wYWNpdHk9Ii4xIiBkPSJNNTcuMTMxIDU3LjdhNCA0IDAgMCAwLTUuNjY5IDBMMzMuNzM1IDc1LjQyOWE0LjAwOCA0LjAwOCAwIDAgMCAwIDUuNjdsMTAuMDM2IDEwLjAzNkw2Mi42NSA2My4yMjJaIi8+PHBhdGggZmlsbD0iI2ZmOGMwMCIgY2xhc3M9Im1zcG9ydGFsZngtc3ZnLWMxMCIgZD0iTTM0Ljc4OCA2OC4xMzd2LTEyLjkybC0zLjg2NCAxLjkwM3YxNC44ODFsMy44NjQtMy44NjR6IiBvcGFjaXR5PSIuNCIvPjwvZz48ZGVmcz4mI3hhOzwvZGVmcz4mI3hhOzwvc3ZnPg==;" parent="1" vertex="1">
          <mxGeometry x="313.55999999999995" y="431.9" width="19.88" height="26.15" as="geometry" />
        </mxCell>
        <mxCell id="4eI5F0YqeXbbPe8JP_zU-17" value="Managed Identity" style="text;html=1;align=center;verticalAlign=middle;whiteSpace=wrap;rounded=0;labelBackgroundColor=none;fontColor=#1890f1;fontSize=9;fontFamily=segoe ui;" parent="1" vertex="1">
          <mxGeometry x="280" y="460.04999999999995" width="87" height="20" as="geometry" />
        </mxCell>
        <mxCell id="4eI5F0YqeXbbPe8JP_zU-18" value="Get-AzResourceGroup" style="text;html=1;align=center;verticalAlign=middle;whiteSpace=wrap;rounded=0;labelBackgroundColor=none;fontSize=9;fontFamily=cascadia code;fillColor=#bac8d3;strokeColor=#23445d;" parent="1" vertex="1">
          <mxGeometry x="390" y="450.05" width="110" height="30" as="geometry" />
        </mxCell>
      </root>
    </mxGraphModel>
  </diagram>
</mxfile>
